<mxfile host="app.diagrams.net" modified="2023-06-19T14:46:17.323Z" agent="Mozilla/5.0 (Windows NT 10.0; Win64; x64) AppleWebKit/537.36 (KHTML, like Gecko) Chrome/114.0.0.0 Safari/537.36" etag="soHqsmir7RwgtIqi835E" version="21.3.4" type="device">
  <diagram name="Halaman-1" id="7ZU-dh_dngUYOYAtQpUE">
    <mxGraphModel dx="2206" dy="1720" grid="1" gridSize="10" guides="1" tooltips="1" connect="1" arrows="1" fold="1" page="1" pageScale="1" pageWidth="827" pageHeight="1169" math="0" shadow="0">
      <root>
        <mxCell id="0" />
        <mxCell id="1" parent="0" />
        <mxCell id="Wbtfqam5gi5mg2sH01zx-17" style="rounded=0;orthogonalLoop=1;jettySize=auto;html=1;exitX=0.5;exitY=1;exitDx=0;exitDy=0;entryX=0.5;entryY=0;entryDx=0;entryDy=0;endArrow=none;endFill=0;" edge="1" parent="1" source="Wbtfqam5gi5mg2sH01zx-7" target="Wbtfqam5gi5mg2sH01zx-1">
          <mxGeometry relative="1" as="geometry" />
        </mxCell>
        <mxCell id="Wbtfqam5gi5mg2sH01zx-32" style="edgeStyle=orthogonalEdgeStyle;rounded=0;orthogonalLoop=1;jettySize=auto;html=1;exitX=1;exitY=0.5;exitDx=0;exitDy=0;entryX=0;entryY=0.5;entryDx=0;entryDy=0;endArrow=none;endFill=0;" edge="1" parent="1" source="Wbtfqam5gi5mg2sH01zx-1" target="Wbtfqam5gi5mg2sH01zx-31">
          <mxGeometry relative="1" as="geometry" />
        </mxCell>
        <mxCell id="Wbtfqam5gi5mg2sH01zx-50" style="rounded=0;orthogonalLoop=1;jettySize=auto;html=1;exitX=0.5;exitY=0;exitDx=0;exitDy=0;entryX=0.5;entryY=1;entryDx=0;entryDy=0;endArrow=none;endFill=0;" edge="1" parent="1" source="Wbtfqam5gi5mg2sH01zx-1" target="Wbtfqam5gi5mg2sH01zx-49">
          <mxGeometry relative="1" as="geometry" />
        </mxCell>
        <mxCell id="Wbtfqam5gi5mg2sH01zx-1" value="Karyawan" style="rounded=0;whiteSpace=wrap;html=1;" vertex="1" parent="1">
          <mxGeometry x="80" y="120" width="120" height="60" as="geometry" />
        </mxCell>
        <mxCell id="Wbtfqam5gi5mg2sH01zx-3" value="Training" style="rounded=0;whiteSpace=wrap;html=1;" vertex="1" parent="1">
          <mxGeometry x="520" y="120" width="120" height="60" as="geometry" />
        </mxCell>
        <mxCell id="Wbtfqam5gi5mg2sH01zx-48" style="edgeStyle=orthogonalEdgeStyle;rounded=0;orthogonalLoop=1;jettySize=auto;html=1;exitX=1;exitY=0.5;exitDx=0;exitDy=0;entryX=0;entryY=0.5;entryDx=0;entryDy=0;endArrow=none;endFill=0;" edge="1" parent="1" source="Wbtfqam5gi5mg2sH01zx-4" target="Wbtfqam5gi5mg2sH01zx-46">
          <mxGeometry relative="1" as="geometry" />
        </mxCell>
        <mxCell id="Wbtfqam5gi5mg2sH01zx-4" value="Detail Karyawan" style="rounded=0;whiteSpace=wrap;html=1;" vertex="1" parent="1">
          <mxGeometry x="-390" y="120" width="120" height="60" as="geometry" />
        </mxCell>
        <mxCell id="Wbtfqam5gi5mg2sH01zx-5" value="Rekening" style="rounded=0;whiteSpace=wrap;html=1;" vertex="1" parent="1">
          <mxGeometry x="80" y="-230" width="120" height="60" as="geometry" />
        </mxCell>
        <mxCell id="Wbtfqam5gi5mg2sH01zx-10" style="rounded=0;orthogonalLoop=1;jettySize=auto;html=1;exitX=0.5;exitY=1;exitDx=0;exitDy=0;entryX=0.5;entryY=0;entryDx=0;entryDy=0;endArrow=none;endFill=0;" edge="1" parent="1" source="Wbtfqam5gi5mg2sH01zx-6" target="Wbtfqam5gi5mg2sH01zx-1">
          <mxGeometry relative="1" as="geometry" />
        </mxCell>
        <mxCell id="Wbtfqam5gi5mg2sH01zx-6" value="ID_karyawan" style="ellipse;whiteSpace=wrap;html=1;" vertex="1" parent="1">
          <mxGeometry x="-20" y="50" width="80" height="40" as="geometry" />
        </mxCell>
        <mxCell id="Wbtfqam5gi5mg2sH01zx-11" style="rounded=0;orthogonalLoop=1;jettySize=auto;html=1;exitX=0.5;exitY=1;exitDx=0;exitDy=0;endArrow=none;endFill=0;" edge="1" parent="1" source="Wbtfqam5gi5mg2sH01zx-7">
          <mxGeometry relative="1" as="geometry">
            <mxPoint x="140" y="120" as="targetPoint" />
          </mxGeometry>
        </mxCell>
        <mxCell id="Wbtfqam5gi5mg2sH01zx-12" style="rounded=0;orthogonalLoop=1;jettySize=auto;html=1;exitX=0.5;exitY=1;exitDx=0;exitDy=0;entryX=0.5;entryY=0;entryDx=0;entryDy=0;endArrow=none;endFill=0;" edge="1" parent="1" source="Wbtfqam5gi5mg2sH01zx-8" target="Wbtfqam5gi5mg2sH01zx-1">
          <mxGeometry relative="1" as="geometry" />
        </mxCell>
        <mxCell id="Wbtfqam5gi5mg2sH01zx-8" value="jabatan" style="ellipse;whiteSpace=wrap;html=1;" vertex="1" parent="1">
          <mxGeometry x="150" y="30" width="80" height="40" as="geometry" />
        </mxCell>
        <mxCell id="Wbtfqam5gi5mg2sH01zx-13" style="rounded=0;orthogonalLoop=1;jettySize=auto;html=1;exitX=0.5;exitY=1;exitDx=0;exitDy=0;entryX=0.5;entryY=0;entryDx=0;entryDy=0;endArrow=none;endFill=0;" edge="1" parent="1" source="Wbtfqam5gi5mg2sH01zx-9" target="Wbtfqam5gi5mg2sH01zx-1">
          <mxGeometry relative="1" as="geometry" />
        </mxCell>
        <mxCell id="Wbtfqam5gi5mg2sH01zx-9" value="departmen" style="ellipse;whiteSpace=wrap;html=1;" vertex="1" parent="1">
          <mxGeometry x="220" y="50" width="80" height="40" as="geometry" />
        </mxCell>
        <mxCell id="Wbtfqam5gi5mg2sH01zx-64" style="rounded=0;orthogonalLoop=1;jettySize=auto;html=1;exitX=0.5;exitY=1;exitDx=0;exitDy=0;entryX=0.5;entryY=0;entryDx=0;entryDy=0;endArrow=none;endFill=0;" edge="1" parent="1" source="Wbtfqam5gi5mg2sH01zx-14" target="Wbtfqam5gi5mg2sH01zx-4">
          <mxGeometry relative="1" as="geometry" />
        </mxCell>
        <mxCell id="Wbtfqam5gi5mg2sH01zx-14" value="alamat" style="ellipse;whiteSpace=wrap;html=1;" vertex="1" parent="1">
          <mxGeometry x="-450" y="50" width="80" height="40" as="geometry" />
        </mxCell>
        <mxCell id="Wbtfqam5gi5mg2sH01zx-62" style="edgeStyle=orthogonalEdgeStyle;rounded=0;orthogonalLoop=1;jettySize=auto;html=1;exitX=0.5;exitY=1;exitDx=0;exitDy=0;endArrow=none;endFill=0;" edge="1" parent="1" source="Wbtfqam5gi5mg2sH01zx-15" target="Wbtfqam5gi5mg2sH01zx-4">
          <mxGeometry relative="1" as="geometry" />
        </mxCell>
        <mxCell id="Wbtfqam5gi5mg2sH01zx-15" value="tanggal_lahir" style="ellipse;whiteSpace=wrap;html=1;" vertex="1" parent="1">
          <mxGeometry x="-370" y="50" width="80" height="40" as="geometry" />
        </mxCell>
        <mxCell id="Wbtfqam5gi5mg2sH01zx-63" style="rounded=0;orthogonalLoop=1;jettySize=auto;html=1;exitX=0.5;exitY=1;exitDx=0;exitDy=0;endArrow=none;endFill=0;" edge="1" parent="1" source="Wbtfqam5gi5mg2sH01zx-16">
          <mxGeometry relative="1" as="geometry">
            <mxPoint x="-330" y="120" as="targetPoint" />
          </mxGeometry>
        </mxCell>
        <mxCell id="Wbtfqam5gi5mg2sH01zx-16" value="telepon" style="ellipse;whiteSpace=wrap;html=1;" vertex="1" parent="1">
          <mxGeometry x="-290" y="50" width="80" height="40" as="geometry" />
        </mxCell>
        <mxCell id="Wbtfqam5gi5mg2sH01zx-7" value="nama" style="ellipse;whiteSpace=wrap;html=1;" vertex="1" parent="1">
          <mxGeometry x="50" y="30" width="80" height="40" as="geometry" />
        </mxCell>
        <mxCell id="Wbtfqam5gi5mg2sH01zx-21" value="Karyawan Training" style="rounded=0;whiteSpace=wrap;html=1;" vertex="1" parent="1">
          <mxGeometry x="298.5" y="270" width="120" height="60" as="geometry" />
        </mxCell>
        <mxCell id="Wbtfqam5gi5mg2sH01zx-28" value="1" style="text;html=1;strokeColor=none;fillColor=none;align=center;verticalAlign=middle;whiteSpace=wrap;rounded=0;" vertex="1" parent="1">
          <mxGeometry x="-210" y="115" width="10" height="30" as="geometry" />
        </mxCell>
        <mxCell id="Wbtfqam5gi5mg2sH01zx-29" value="1" style="text;html=1;strokeColor=none;fillColor=none;align=center;verticalAlign=middle;whiteSpace=wrap;rounded=0;" vertex="1" parent="1">
          <mxGeometry y="115" width="10" height="30" as="geometry" />
        </mxCell>
        <mxCell id="Wbtfqam5gi5mg2sH01zx-33" style="edgeStyle=orthogonalEdgeStyle;rounded=0;orthogonalLoop=1;jettySize=auto;html=1;exitX=1;exitY=0.5;exitDx=0;exitDy=0;entryX=0;entryY=0.5;entryDx=0;entryDy=0;endArrow=none;endFill=0;" edge="1" parent="1" source="Wbtfqam5gi5mg2sH01zx-31" target="Wbtfqam5gi5mg2sH01zx-3">
          <mxGeometry relative="1" as="geometry" />
        </mxCell>
        <mxCell id="Wbtfqam5gi5mg2sH01zx-73" style="edgeStyle=none;rounded=0;orthogonalLoop=1;jettySize=auto;html=1;exitX=0.5;exitY=1;exitDx=0;exitDy=0;endArrow=none;endFill=0;" edge="1" parent="1" source="Wbtfqam5gi5mg2sH01zx-31" target="Wbtfqam5gi5mg2sH01zx-21">
          <mxGeometry relative="1" as="geometry" />
        </mxCell>
        <mxCell id="Wbtfqam5gi5mg2sH01zx-31" value="Mengikuti" style="rhombus;whiteSpace=wrap;html=1;" vertex="1" parent="1">
          <mxGeometry x="303.5" y="120" width="110" height="60" as="geometry" />
        </mxCell>
        <mxCell id="Wbtfqam5gi5mg2sH01zx-39" style="rounded=0;orthogonalLoop=1;jettySize=auto;html=1;exitX=0.5;exitY=1;exitDx=0;exitDy=0;endArrow=none;endFill=0;entryX=0.5;entryY=0;entryDx=0;entryDy=0;" edge="1" parent="1" source="Wbtfqam5gi5mg2sH01zx-34" target="Wbtfqam5gi5mg2sH01zx-3">
          <mxGeometry relative="1" as="geometry" />
        </mxCell>
        <mxCell id="Wbtfqam5gi5mg2sH01zx-34" value="ID_pelatihan" style="ellipse;whiteSpace=wrap;html=1;" vertex="1" parent="1">
          <mxGeometry x="460" y="50" width="80" height="40" as="geometry" />
        </mxCell>
        <mxCell id="Wbtfqam5gi5mg2sH01zx-41" style="rounded=0;orthogonalLoop=1;jettySize=auto;html=1;exitX=0.5;exitY=1;exitDx=0;exitDy=0;entryX=0.5;entryY=0;entryDx=0;entryDy=0;endArrow=none;endFill=0;" edge="1" parent="1" source="Wbtfqam5gi5mg2sH01zx-35" target="Wbtfqam5gi5mg2sH01zx-3">
          <mxGeometry relative="1" as="geometry" />
        </mxCell>
        <mxCell id="Wbtfqam5gi5mg2sH01zx-35" value="judul" style="ellipse;whiteSpace=wrap;html=1;" vertex="1" parent="1">
          <mxGeometry x="500" y="20" width="80" height="40" as="geometry" />
        </mxCell>
        <mxCell id="Wbtfqam5gi5mg2sH01zx-42" style="rounded=0;orthogonalLoop=1;jettySize=auto;html=1;exitX=0.5;exitY=1;exitDx=0;exitDy=0;endArrow=none;endFill=0;" edge="1" parent="1" source="Wbtfqam5gi5mg2sH01zx-36">
          <mxGeometry relative="1" as="geometry">
            <mxPoint x="580" y="120" as="targetPoint" />
          </mxGeometry>
        </mxCell>
        <mxCell id="Wbtfqam5gi5mg2sH01zx-36" value="deskripsi" style="ellipse;whiteSpace=wrap;html=1;" vertex="1" parent="1">
          <mxGeometry x="630" y="20" width="80" height="40" as="geometry" />
        </mxCell>
        <mxCell id="Wbtfqam5gi5mg2sH01zx-40" style="rounded=0;orthogonalLoop=1;jettySize=auto;html=1;exitX=0.5;exitY=1;exitDx=0;exitDy=0;entryX=0.5;entryY=0;entryDx=0;entryDy=0;endArrow=none;endFill=0;" edge="1" parent="1" source="Wbtfqam5gi5mg2sH01zx-37" target="Wbtfqam5gi5mg2sH01zx-3">
          <mxGeometry relative="1" as="geometry" />
        </mxCell>
        <mxCell id="Wbtfqam5gi5mg2sH01zx-37" value="tanggal_mulai" style="ellipse;whiteSpace=wrap;html=1;" vertex="1" parent="1">
          <mxGeometry x="560" y="40" width="80" height="40" as="geometry" />
        </mxCell>
        <mxCell id="Wbtfqam5gi5mg2sH01zx-43" style="rounded=0;orthogonalLoop=1;jettySize=auto;html=1;exitX=0.5;exitY=1;exitDx=0;exitDy=0;entryX=0.5;entryY=0;entryDx=0;entryDy=0;endArrow=none;endFill=0;" edge="1" parent="1" source="Wbtfqam5gi5mg2sH01zx-38" target="Wbtfqam5gi5mg2sH01zx-3">
          <mxGeometry relative="1" as="geometry" />
        </mxCell>
        <mxCell id="Wbtfqam5gi5mg2sH01zx-38" value="tanggal_selesai" style="ellipse;whiteSpace=wrap;html=1;" vertex="1" parent="1">
          <mxGeometry x="650" y="60" width="96" height="40" as="geometry" />
        </mxCell>
        <mxCell id="Wbtfqam5gi5mg2sH01zx-44" value="1" style="text;html=1;strokeColor=none;fillColor=none;align=center;verticalAlign=middle;whiteSpace=wrap;rounded=0;" vertex="1" parent="1">
          <mxGeometry x="255" y="125" width="5" height="20" as="geometry" />
        </mxCell>
        <mxCell id="Wbtfqam5gi5mg2sH01zx-45" value="M" style="text;html=1;strokeColor=none;fillColor=none;align=center;verticalAlign=middle;whiteSpace=wrap;rounded=0;" vertex="1" parent="1">
          <mxGeometry x="460" y="120" width="10" height="30" as="geometry" />
        </mxCell>
        <mxCell id="Wbtfqam5gi5mg2sH01zx-47" style="edgeStyle=orthogonalEdgeStyle;rounded=0;orthogonalLoop=1;jettySize=auto;html=1;exitX=1;exitY=0.5;exitDx=0;exitDy=0;entryX=0;entryY=0.5;entryDx=0;entryDy=0;endArrow=none;endFill=0;" edge="1" parent="1" source="Wbtfqam5gi5mg2sH01zx-46" target="Wbtfqam5gi5mg2sH01zx-1">
          <mxGeometry relative="1" as="geometry" />
        </mxCell>
        <mxCell id="Wbtfqam5gi5mg2sH01zx-46" value="Informasi" style="rhombus;whiteSpace=wrap;html=1;" vertex="1" parent="1">
          <mxGeometry x="-150" y="120" width="110" height="60" as="geometry" />
        </mxCell>
        <mxCell id="Wbtfqam5gi5mg2sH01zx-51" style="edgeStyle=orthogonalEdgeStyle;rounded=0;orthogonalLoop=1;jettySize=auto;html=1;exitX=0.5;exitY=0;exitDx=0;exitDy=0;entryX=0.5;entryY=1;entryDx=0;entryDy=0;endArrow=none;endFill=0;" edge="1" parent="1" source="Wbtfqam5gi5mg2sH01zx-49" target="Wbtfqam5gi5mg2sH01zx-5">
          <mxGeometry relative="1" as="geometry" />
        </mxCell>
        <mxCell id="Wbtfqam5gi5mg2sH01zx-49" value="Mengecek" style="rhombus;whiteSpace=wrap;html=1;" vertex="1" parent="1">
          <mxGeometry x="85" y="-70" width="110" height="60" as="geometry" />
        </mxCell>
        <mxCell id="Wbtfqam5gi5mg2sH01zx-54" style="rounded=0;orthogonalLoop=1;jettySize=auto;html=1;exitX=0.5;exitY=1;exitDx=0;exitDy=0;entryX=0.5;entryY=0;entryDx=0;entryDy=0;endArrow=none;endFill=0;" edge="1" parent="1" source="Wbtfqam5gi5mg2sH01zx-52" target="Wbtfqam5gi5mg2sH01zx-5">
          <mxGeometry relative="1" as="geometry" />
        </mxCell>
        <mxCell id="Wbtfqam5gi5mg2sH01zx-52" value="nomor_rekening" style="ellipse;whiteSpace=wrap;html=1;" vertex="1" parent="1">
          <mxGeometry x="25" y="-300" width="105" height="40" as="geometry" />
        </mxCell>
        <mxCell id="Wbtfqam5gi5mg2sH01zx-55" style="rounded=0;orthogonalLoop=1;jettySize=auto;html=1;exitX=0.5;exitY=1;exitDx=0;exitDy=0;entryX=0.5;entryY=0;entryDx=0;entryDy=0;endArrow=none;endFill=0;" edge="1" parent="1" source="Wbtfqam5gi5mg2sH01zx-53" target="Wbtfqam5gi5mg2sH01zx-5">
          <mxGeometry relative="1" as="geometry" />
        </mxCell>
        <mxCell id="Wbtfqam5gi5mg2sH01zx-53" value="saldo" style="ellipse;whiteSpace=wrap;html=1;" vertex="1" parent="1">
          <mxGeometry x="155" y="-300" width="105" height="40" as="geometry" />
        </mxCell>
        <mxCell id="Wbtfqam5gi5mg2sH01zx-56" value="M" style="text;html=1;strokeColor=none;fillColor=none;align=center;verticalAlign=middle;whiteSpace=wrap;rounded=0;" vertex="1" parent="1">
          <mxGeometry x="160" y="-120" width="10" height="30" as="geometry" />
        </mxCell>
        <mxCell id="Wbtfqam5gi5mg2sH01zx-59" value="1" style="text;html=1;strokeColor=none;fillColor=none;align=center;verticalAlign=middle;whiteSpace=wrap;rounded=0;" vertex="1" parent="1">
          <mxGeometry x="155" width="5" height="20" as="geometry" />
        </mxCell>
        <mxCell id="Wbtfqam5gi5mg2sH01zx-69" style="rounded=0;orthogonalLoop=1;jettySize=auto;html=1;exitX=0.5;exitY=0;exitDx=0;exitDy=0;endArrow=none;endFill=0;entryX=0.5;entryY=1;entryDx=0;entryDy=0;" edge="1" parent="1" source="Wbtfqam5gi5mg2sH01zx-65" target="Wbtfqam5gi5mg2sH01zx-21">
          <mxGeometry relative="1" as="geometry">
            <mxPoint x="358.5" y="320" as="targetPoint" />
            <Array as="points" />
          </mxGeometry>
        </mxCell>
        <mxCell id="Wbtfqam5gi5mg2sH01zx-65" value="ID_karyawan" style="ellipse;whiteSpace=wrap;html=1;" vertex="1" parent="1">
          <mxGeometry x="218.5" y="350" width="80" height="40" as="geometry" />
        </mxCell>
        <mxCell id="Wbtfqam5gi5mg2sH01zx-70" style="rounded=0;orthogonalLoop=1;jettySize=auto;html=1;exitX=0.5;exitY=0;exitDx=0;exitDy=0;endArrow=none;endFill=0;entryX=0.5;entryY=1;entryDx=0;entryDy=0;" edge="1" parent="1" source="Wbtfqam5gi5mg2sH01zx-66" target="Wbtfqam5gi5mg2sH01zx-21">
          <mxGeometry relative="1" as="geometry">
            <mxPoint x="368.5" y="350" as="targetPoint" />
          </mxGeometry>
        </mxCell>
        <mxCell id="Wbtfqam5gi5mg2sH01zx-66" value="ID_pelatihan" style="ellipse;whiteSpace=wrap;html=1;" vertex="1" parent="1">
          <mxGeometry x="278.5" y="380" width="80" height="40" as="geometry" />
        </mxCell>
        <mxCell id="Wbtfqam5gi5mg2sH01zx-71" style="rounded=0;orthogonalLoop=1;jettySize=auto;html=1;exitX=0.5;exitY=0;exitDx=0;exitDy=0;entryX=0.5;entryY=1;entryDx=0;entryDy=0;endArrow=none;endFill=0;" edge="1" parent="1" source="Wbtfqam5gi5mg2sH01zx-67" target="Wbtfqam5gi5mg2sH01zx-21">
          <mxGeometry relative="1" as="geometry">
            <mxPoint x="358.5" y="340" as="targetPoint" />
          </mxGeometry>
        </mxCell>
        <mxCell id="Wbtfqam5gi5mg2sH01zx-67" value="status" style="ellipse;whiteSpace=wrap;html=1;" vertex="1" parent="1">
          <mxGeometry x="358.5" y="380" width="80" height="40" as="geometry" />
        </mxCell>
        <mxCell id="Wbtfqam5gi5mg2sH01zx-72" style="edgeStyle=none;rounded=0;orthogonalLoop=1;jettySize=auto;html=1;exitX=0.5;exitY=0;exitDx=0;exitDy=0;entryX=0.5;entryY=1;entryDx=0;entryDy=0;endArrow=none;endFill=0;" edge="1" parent="1" source="Wbtfqam5gi5mg2sH01zx-68" target="Wbtfqam5gi5mg2sH01zx-21">
          <mxGeometry relative="1" as="geometry" />
        </mxCell>
        <mxCell id="Wbtfqam5gi5mg2sH01zx-68" value="skor" style="ellipse;whiteSpace=wrap;html=1;" vertex="1" parent="1">
          <mxGeometry x="418.5" y="350" width="80" height="40" as="geometry" />
        </mxCell>
        <mxCell id="Wbtfqam5gi5mg2sH01zx-74" value="1" style="text;html=1;strokeColor=none;fillColor=none;align=center;verticalAlign=middle;whiteSpace=wrap;rounded=0;" vertex="1" parent="1">
          <mxGeometry x="380" y="210" width="5" height="20" as="geometry" />
        </mxCell>
      </root>
    </mxGraphModel>
  </diagram>
</mxfile>
